<?xml version="1.0" standalone="no"?><!DOCTYPE svg PUBLIC "-//W3C//DTD SVG 1.1//EN" "http://www.w3.org/Graphics/SVG/1.1/DTD/svg11.dtd"><svg t="1586585977059" class="icon" viewBox="0 0 1024 1024" version="1.1" xmlns="http://www.w3.org/2000/svg" p-id="2953" xmlns:xlink="http://www.w3.org/1999/xlink" width="100" height="100"><defs><style type="text/css"></style></defs><path d="M950.8 541.8L488.7 79.7c-7.5-7.5-19.7-7.5-27.2 0s-7.5 19.7 0 27.2l37.2 37.2c-1.3 1.3-2.4 2.8-3.3 4.5L223.9 665.9 98.5 691.8c-10.7 2.2-17.3 12.4-14.9 22.9 0.6 2.7 1.9 5.2 3.5 7.3 0.9 2.5 2.3 4.8 4.3 6.8L304 941.4c3.2 3.2 7.4 5 11.6 5.4 0.1 0 0.1 0 0.2 0.1 10.4 2.4 20.7-4.2 22.9-14.9l26.1-126.1 77.8-40.9c5.5 16.2 14.7 31.5 27.7 44.5 45.1 45 118.2 45 163.3 0 41.2-41.1 44.7-105.4 10.7-150.5l230.4-121.1c3.9-2.1 6.8-5.4 8.5-9.2l40.4 40.4c7.5 7.5 19.7 7.5 27.2 0 7.5-7.6 7.5-19.8 0-27.3zM606.4 782.3c-30.1 30-78.8 30-108.9 0-10.2-10.2-16.9-22.5-20.2-35.6l132.3-69.5c26.8 30.1 25.7 76.3-3.2 105.1zM857 504.2L345.7 772.9c-8.1 0.7-15.1 6.7-16.9 15.3l-21.4 103.5L138.8 723l103.5-21.4c8.7-1.8 14.8-9 15.3-17.3l269-512.3 331.6 331.6c-0.4 0.2-0.9 0.3-1.2 0.6z" p-id="2954" fill="#dbdbdb"></path></svg>