<?xml version="1.0" standalone="no"?><!DOCTYPE svg PUBLIC "-//W3C//DTD SVG 1.1//EN" "http://www.w3.org/Graphics/SVG/1.1/DTD/svg11.dtd"><svg t="1586585935361" class="icon" viewBox="0 0 1024 1024" version="1.1" xmlns="http://www.w3.org/2000/svg" p-id="2304" xmlns:xlink="http://www.w3.org/1999/xlink" width="100" height="100"><defs><style type="text/css"></style></defs><path d="M736.8704 399.36c-3.2768-5.8368-3.2768-12.9024 0-18.7392l110.1824-197.12c7.168-12.8-2.048-28.4672-16.6912-28.4672H242.8928c-10.8544 0-19.7632 8.8064-19.7632 19.7632v653.312h-28.3648c-8.2944 0-15.9744 5.0176-18.8416 12.8-5.3248 14.5408 5.3248 28.16 19.0464 28.16h97.4848c8.2944 0 15.9744-5.0176 18.8416-12.8 5.3248-14.5408-5.3248-28.16-19.0464-28.16h-28.16V625.0496h566.1696c14.6432 0 23.8592-15.7696 16.6912-28.4672L736.8704 399.36zM264.0896 584.0896v-388.096h528.9984l-92.0576 164.7616c-10.1376 18.1248-10.1376 40.5504 0 58.6752l92.0576 164.7616H264.0896z" p-id="2305" fill="#dbdbdb"></path><path d="M648.9088 344.9856l-86.1184-12.4928c-2.4576-0.3072-4.5056-1.8432-5.632-4.096l-38.5024-78.0288c-1.3312-2.7648-3.9936-4.096-6.656-4.096s-5.3248 1.3312-6.656 4.096l-38.5024 78.0288c-1.1264 2.1504-3.1744 3.6864-5.632 4.096l-86.1184 12.4928c-6.0416 0.9216-8.4992 8.3968-4.096 12.6976l62.3616 60.7232c1.7408 1.7408 2.56 4.1984 2.1504 6.5536l-14.7456 85.8112c-0.8192 4.8128 2.9696 8.704 7.2704 8.704 1.1264 0 2.3552-0.3072 3.4816-0.8192l77.0048-40.5504c1.1264-0.6144 2.2528-0.8192 3.4816-0.8192s2.3552 0.3072 3.4816 0.8192l77.0048 40.5504c1.1264 0.6144 2.3552 0.8192 3.4816 0.8192 4.3008 0 8.0896-3.8912 7.2704-8.704L588.5952 424.96c-0.4096-2.4576 0.4096-4.9152 2.1504-6.5536l62.3616-60.7232c4.3008-4.4032 1.9456-11.8784-4.1984-12.6976z m-81.1008 49.9712c-9.5232 9.216-13.824 22.528-11.5712 35.5328l6.0416 35.2256-31.6416-16.5888c-5.7344-2.9696-12.1856-4.608-18.7392-4.608s-13.0048 1.6384-18.7392 4.608l-31.6416 16.5888 6.0416-35.2256c2.2528-13.0048-2.048-26.3168-11.5712-35.5328l-25.6-24.8832 35.328-5.12c13.1072-1.9456 24.3712-10.1376 30.3104-22.016l15.7696-32.0512 15.7696 32.0512c5.8368 11.8784 17.2032 20.0704 30.3104 22.016l35.328 5.12-25.3952 24.8832z" p-id="2306" fill="#dbdbdb"></path></svg>