<?xml version="1.0" standalone="no"?><!DOCTYPE svg PUBLIC "-//W3C//DTD SVG 1.1//EN" "http://www.w3.org/Graphics/SVG/1.1/DTD/svg11.dtd"><svg t="1586586077368" class="icon" viewBox="0 0 1028 1024" version="1.1" xmlns="http://www.w3.org/2000/svg" p-id="3878" xmlns:xlink="http://www.w3.org/1999/xlink" width="100.390625" height="100"><defs><style type="text/css"></style></defs><path d="M878.428432 526.197227c-8.998243-9.098223-21.295841-14.197227-34.193322-14.197227L629.876977 512c-29.794181 0-53.989455 24.095294-53.989455 53.789494L575.887522 968.210896c0 29.6942 24.195274 53.789494 53.989455 53.789494l339.933607 0c29.794181 0 53.989455-24.095294 53.989455-53.789494L1023.800039 691.664909c0-12.69752-4.999024-24.795157-13.997266-33.7934L878.428432 526.197227zM959.812537 958.012888l-319.937512 0 0-381.925405 197.861355 0L959.812537 698.363601 959.812537 958.012888z" p-id="3879" fill="#dbdbdb"></path><path d="M691.564929 704.062488l91.882054 0c17.696544 0 31.993751-14.297208 31.993751-31.993751s-14.297208-31.993751-31.993751-31.993751l-91.882054 0c-17.696544 0-31.993751 14.297208-31.993751 31.993751S673.868385 704.062488 691.564929 704.062488z" p-id="3880" fill="#dbdbdb"></path><path d="M659.571178 768.04999c0 17.696544 14.297208 31.993751 31.993751 31.993751l206.859598 0c17.696544 0 31.993751-14.297208 31.993751-31.993751s-14.297208-31.993751-31.993751-31.993751l-206.859598 0C673.868385 736.056239 659.571178 750.353447 659.571178 768.04999z" p-id="3881" fill="#dbdbdb"></path><path d="M898.424526 832.037493l-206.859598 0c-17.696544 0-31.993751 14.297208-31.993751 31.993751s14.297208 31.993751 31.993751 31.993751l206.859598 0c17.696544 0 31.993751-14.297208 31.993751-31.993751S916.02109 832.037493 898.424526 832.037493z" p-id="3882" fill="#dbdbdb"></path><path d="M482.705722 591.684437c-25.29506-7.198594-51.289982-15.596954-77.284905-24.995118-50.390158-18.196446-98.480765-27.49463-143.072056-27.59461C206.959578 536.995118 160.968561 555.891427 127.975005 576.087483l0-432.515524c1.699668-12.097637 6.698692-28.294474 11.397774-34.093341 25.29506-17.696544 76.08514-45.391135 145.771529-45.391135 18.896309 0 67.086897 11.897676 93.981644 19.596173 19.196251 7.198594 216.657684 79.984378 325.636399 79.984378 65.58719 0 159.868776-26.594806 252.350713-71.086116 0.799844-0.199961 1.399727-0.299941 1.799649-0.399922 0.499902 0.799844 1.099785 1.899629 1.499707 3.099395L963.811756 499.30248c0.09998 17.596563 14.397188 31.69381 31.993751 31.69381 0.09998 0 0.199961 0 0.299941 0 17.696544-0.09998 31.893771-14.597149 31.69381-32.293693l-3.299356-408.220269 0-2.799453-0.499902-2.799453c-0.999805-5.498926-7.398555-33.7934-32.893575-48.69049-11.297793-6.598711-30.194103-12.59754-56.089045-3.799258l-1.799649 0.599883-1.799649 0.799844c-83.683656 40.492091-170.466706 65.68717-226.555751 65.68717-100.580355 0-302.340949-75.485257-304.340558-76.285101l-1.199766-0.399922-1.199766-0.399922c-7.898457-2.299551-78.484671-22.395626-112.877954-22.395626 0 0 0 0 0 0-89.682484 0-154.669791 36.992775-185.363796 58.988479l-1.699668 1.199766-1.499707 1.399727c-25.195079 23.495411-31.393868 67.486819-32.393673 76.08514l-0.199961 1.799649 0 852.333529c0 17.696544 14.297208 31.993751 31.993751 31.993751 17.696544 0 31.993751-14.297208 31.993751-31.993751L128.074985 655.97188c18.596368-17.096661 67.986721-55.589143 132.374146-52.98965l1.299746 0c37.292716 0 78.28471 7.998438 121.876196 23.795352 27.394649 9.898067 54.889279 18.796329 81.684046 26.394845 16.99668 4.799063 34.693224-5.099004 39.492287-22.095684S499.702402 596.483499 482.705722 591.684437z" p-id="3883" fill="#dbdbdb"></path></svg>