<?xml version="1.0" standalone="no"?><!DOCTYPE svg PUBLIC "-//W3C//DTD SVG 1.1//EN" "http://www.w3.org/Graphics/SVG/1.1/DTD/svg11.dtd"><svg t="1586709201543" class="icon" viewBox="0 0 1024 1024" version="1.1" xmlns="http://www.w3.org/2000/svg" p-id="2920" xmlns:xlink="http://www.w3.org/1999/xlink" width="128" height="128"><defs><style type="text/css"></style></defs><path d="M996.4544 466.1248c5.157547 8.779093 1.69984 20.394667-7.75168 25.944747l-52.206933 30.706346c-9.427627 5.546667-21.261653 2.932053-26.415787-5.853866l-140.65664-239.148374c-5.164373-8.77568-1.706667-20.391253 7.734613-25.934506l52.206934-30.706347c9.43104-5.55008 21.271893-2.93888 26.43968 5.840213l140.649813 239.151787zM119.842133 522.68032a19.821227 19.821227 0 0 1-25.678506 11.250347l-56.415574-22.029654a19.817813 19.817813 0 0 1-11.24352-25.668266L134.990507 208.418133a19.831467 19.831467 0 0 1 25.668266-11.25376l56.418987 22.03648a19.828053 19.828053 0 0 1 11.264 25.67168L119.842133 522.68032z m645.79584-234.284373l139.22304 235.933013-108.93312 113.595733-237.684053-256.3584s-12.62592-18.602667-26.118827-9.280853c-13.489493 9.321813-143.98464 76.895573-143.98464 76.895573s-41.946453 18.643627-55.924053 2.331307c-13.9776-16.31232-20.97152-49.015467 0-69.946027 20.974933-20.93056 174.848-117.210453 207.39072-126.81216 26.651307-7.867733 66.095787-18.8928 101.362347 11.79648 33.6384 29.272747 97.024 31.97952 124.668586 21.845334z m-245.44256 541.44c-13.74208 14.455467-36.59776 15.035733-51.05664 1.297066-14.45888-13.748907-15.035733-36.611413-1.293653-51.063466l32.914773-34.628267c13.74208-14.455467 36.604587-15.035733 51.063467-1.297067 14.455467 13.745493 15.035733 36.611413 1.297067 51.06688l-32.925014 34.624854z m-241.92-148.995414c-12.43136 13.083307-33.815893 12.939947-47.74912-0.310613-13.94688-13.257387-15.168853-34.60096-2.72384-47.680853l29.77792-31.32416c12.43136-13.083307 33.809067-12.939947 47.752534 0.3072 13.943467 13.253973 15.158613 34.60096 2.73408 47.680853l-29.791574 31.327573z m154.28608 106.909014c-12.076373 12.7488-33.409707 12.148053-47.643306-1.338027-14.230187-13.479253-15.988053-34.751147-3.904854-47.49312l69.205334-73.05216c12.076373-12.752213 33.41312-12.15488 47.63648 1.334613 14.240427 13.479253 15.99488 34.747733 3.91168 47.496534l-69.205334 73.05216z m-71.970133-56.214187c-10.57792 11.168427-30.508373 9.468587-44.50304-3.785387-13.994667-13.257387-16.766293-33.06496-6.188373-44.229973l60.634453-64.003413c10.57792-11.165013 30.498133-9.468587 44.496213 3.7888 13.99808 13.257387 16.769707 33.061547 6.188374 44.229973l-60.627627 64z" p-id="2921" fill="#8a8a8a"></path><path d="M236.489387 598.934187l-19.749547 20.527786-79.097173-84.165973s-8.157867-3.024213 0-27.671893c8.15104-24.651093 96.699733-249.514667 96.699733-249.514667s12.817067-11.656533 22.135467-4.662613c9.325227 6.990507 27.57632 34.952533 46.998186 30.293333 19.41504-4.6592 100.973227-61.709653 130.102614-55.90016 29.125973 5.80608 58.251947 26.774187 58.251946 26.774187l-24.46336 15.14496s-24.681813-15.14496-39.724373-13.981014c-15.03232 1.163947-110.189227 63.501653-129.21856 61.170347-19.02592-2.33472-48.92672-22.72256-48.92672-22.72256s-86.903467 210.67776-84.3264 224.43008c1.303893 6.98368 71.318187 80.278187 71.318187 80.278187z m337.629866 191.00672s51.98848 17.506987 49.370454-39.294294l-79.520427-93.969066s-6.403413-19.623253 19.083947-18.752854l88.398506 100.99712s27.958613 14.677333 46.30528-4.7104c18.353493-19.387733 4.369067-38.611627 4.369067-38.611626l-81.26464-95.245654s-9.59488-12.2368 4.379307-22.719146c13.974187-10.48576 25.33376 8.73472 25.33376 8.73472l83.008853 99.7376s24.787627 18.455893 52.432213-4.488534c23.149227-19.22048 20.534613-53.080747 20.534614-53.080746l-0.256-16.397654 19.9168-12.875093s14.76608 70.47168-16.254294 98.43712c-31.0272 27.96544-77.42464 17.537707-77.42464 17.537707s-4.191573 37.164373-29.53216 49.394346c-25.340587 12.240213-49.803947 4.369067-49.803946 4.369067s0.866987 32.334507-28.83584 47.18592c-29.713067 14.85824-67.28704 0-67.28704 0l17.046186-26.248533z" p-id="2922" fill="#8a8a8a"></path></svg>